<svg xmlns="http://www.w3.org/2000/svg" xmlns:xlink="http://www.w3.org/1999/xlink" width="500" zoomAndPan="magnify" viewBox="0 0 375 374.999991" height="500" preserveAspectRatio="xMidYMid meet" version="1.0"><defs><filter x="0%" y="0%" width="100%" height="100%" id="144ff16744"><feColorMatrix values="0 0 0 0 1 0 0 0 0 1 0 0 0 0 1 0 0 0 1 0" color-interpolation-filters="sRGB"/></filter><g/><clipPath id="b129430d39"><path d="M 10.558594 11.1875 L 358.757812 11.1875 L 358.757812 359.382812 L 10.558594 359.382812 Z M 10.558594 11.1875 " clip-rule="nonzero"/></clipPath><clipPath id="2024ded682"><path d="M 184.660156 11.1875 C 88.507812 11.1875 10.558594 89.132812 10.558594 185.285156 C 10.558594 281.4375 88.507812 359.382812 184.660156 359.382812 C 280.8125 359.382812 358.757812 281.4375 358.757812 185.285156 C 358.757812 89.132812 280.8125 11.1875 184.660156 11.1875 " clip-rule="nonzero"/></clipPath><clipPath id="105743c446"><path d="M 128.132812 143.949219 L 229.574219 143.949219 L 229.574219 221.214844 L 128.132812 221.214844 Z M 128.132812 143.949219 " clip-rule="nonzero"/></clipPath><mask id="6e20007298"><g filter="url(#144ff16744)"><rect x="-37.5" width="450" fill="#000000" y="-37.499999" height="449.999989" fill-opacity="0.6667"/></g></mask><clipPath id="c36ec9cb37"><path d="M 0.800781 0.0390625 L 123 0.0390625 L 123 168 L 0.800781 168 Z M 0.800781 0.0390625 " clip-rule="nonzero"/></clipPath><clipPath id="1d44581ac5"><path d="M 133.222656 14.210938 L 112.316406 181.421875 L 0.84375 167.484375 L 21.746094 0.273438 Z M 133.222656 14.210938 " clip-rule="nonzero"/></clipPath><clipPath id="2867512079"><path d="M 122.773438 97.78125 L 0.90625 167.421875 L 21.800781 0.28125 L 122.773438 97.78125 " clip-rule="nonzero"/></clipPath><clipPath id="e3145856e2"><rect x="0" width="134" y="0" height="182"/></clipPath><mask id="d3f59484c7"><g filter="url(#144ff16744)"><rect x="-37.5" width="450" fill="#000000" y="-37.499999" height="449.999989" fill-opacity="0.6667"/></g></mask><clipPath id="d5df6aa059"><path d="M 0.761719 0.425781 L 159.523438 0.425781 L 159.523438 57.480469 L 0.761719 57.480469 Z M 0.761719 0.425781 " clip-rule="nonzero"/></clipPath><clipPath id="dd1f5a7838"><path d="M 80.144531 0.425781 L 159.523438 57.09375 L 0.761719 57.09375 L 80.144531 0.425781 " clip-rule="nonzero"/></clipPath><clipPath id="23b6b5a3f1"><rect x="0" width="160" y="0" height="58"/></clipPath></defs><g clip-path="url(#b129430d39)"><g clip-path="url(#2024ded682)"><path fill="#fdfdfd" d="M 10.558594 11.1875 L 358.757812 11.1875 L 358.757812 359.382812 L 10.558594 359.382812 Z M 10.558594 11.1875 " fill-opacity="1" fill-rule="nonzero"/></g></g><g fill="#000000" fill-opacity="1"><g transform="translate(148.330118, 332.4428)"><g><path d="M 56.53125 -127.078125 C 77.71875 -127.078125 93.570312 -121.78125 104.09375 -111.1875 C 114.625 -100.601562 119.890625 -85.195312 119.890625 -64.96875 C 119.890625 -51.925781 117.316406 -40.5 112.171875 -30.6875 C 107.023438 -20.875 99.578125 -13.304688 89.828125 -7.984375 C 80.078125 -2.660156 68.441406 0 54.921875 0 L 44.515625 -0.171875 C 37.816406 -0.410156 32.910156 -0.53125 29.796875 -0.53125 C 19.984375 -0.53125 12.5625 -0.351562 7.53125 0 L 7.53125 -3.59375 C 11.84375 -3.832031 14.984375 -4.3125 16.953125 -5.03125 C 18.929688 -5.75 20.28125 -7.125 21 -9.15625 C 21.71875 -11.1875 22.078125 -14.476562 22.078125 -19.03125 L 22.078125 -108.046875 C 22.078125 -112.597656 21.71875 -115.890625 21 -117.921875 C 20.28125 -119.953125 18.929688 -121.328125 16.953125 -122.046875 C 14.984375 -122.765625 11.84375 -123.242188 7.53125 -123.484375 L 7.53125 -127.078125 C 11.71875 -126.710938 17.523438 -126.53125 24.953125 -126.53125 L 40.203125 -126.71875 C 48.335938 -126.957031 53.78125 -127.078125 56.53125 -127.078125 Z M 52.046875 -123.84375 C 48.335938 -123.84375 45.554688 -123.421875 43.703125 -122.578125 C 41.847656 -121.742188 40.5625 -120.25 39.84375 -118.09375 C 39.125 -115.945312 38.765625 -112.71875 38.765625 -108.40625 L 38.765625 -18.671875 C 38.765625 -14.359375 39.125 -11.125 39.84375 -8.96875 C 40.5625 -6.820312 41.847656 -5.328125 43.703125 -4.484375 C 45.554688 -3.648438 48.398438 -3.234375 52.234375 -3.234375 C 64.910156 -3.234375 74.898438 -5.535156 82.203125 -10.140625 C 89.503906 -14.742188 94.617188 -21.472656 97.546875 -30.328125 C 100.484375 -39.179688 101.953125 -50.488281 101.953125 -64.25 C 101.953125 -78.007812 100.332031 -89.226562 97.09375 -97.90625 C 93.863281 -106.582031 88.628906 -113.070312 81.390625 -117.375 C 74.148438 -121.6875 64.367188 -123.84375 52.046875 -123.84375 Z M 52.046875 -123.84375 "/></g></g></g><g fill="#ffffff" fill-opacity="1"><g transform="translate(116.435, 212.052635)"><g><path d="M 81.109375 2.5625 C 65.304688 2.5625 51.941406 -1.078125 41.015625 -8.359375 C 30.097656 -15.648438 21.847656 -25.914062 16.265625 -39.15625 C 10.691406 -52.40625 7.90625 -67.785156 7.90625 -85.296875 C 7.90625 -103.117188 11.273438 -118.769531 18.015625 -132.25 C 24.753906 -145.726562 34.007812 -156.144531 45.78125 -163.5 C 57.5625 -170.863281 70.8125 -174.546875 85.53125 -174.546875 C 109.707031 -174.546875 128.1875 -166.914062 140.96875 -151.65625 C 153.75 -136.394531 160.140625 -115.285156 160.140625 -88.328125 C 160.140625 -70.191406 156.691406 -54.265625 149.796875 -40.546875 C 142.898438 -26.835938 133.445312 -16.222656 121.4375 -8.703125 C 109.425781 -1.191406 95.984375 2.5625 81.109375 2.5625 Z M 84.140625 -162.46875 C 69.109375 -162.46875 57.253906 -155.921875 48.578125 -142.828125 C 39.898438 -129.734375 35.5625 -110.554688 35.5625 -85.296875 C 35.5625 -62.054688 39.78125 -43.65625 48.21875 -30.09375 C 56.664062 -16.539062 68.484375 -9.765625 83.671875 -9.765625 C 98.546875 -9.765625 110.359375 -16.503906 119.109375 -29.984375 C 127.867188 -43.460938 132.25 -62.832031 132.25 -88.09375 C 132.25 -111.488281 128.0625 -129.734375 119.6875 -142.828125 C 111.320312 -155.921875 99.472656 -162.46875 84.140625 -162.46875 Z M 84.140625 -162.46875 "/></g></g></g><g clip-path="url(#105743c446)"><path fill="#ffffff" d="M 186.628906 325.636719 C 183.246094 323.597656 180.457031 319.15625 180.25 311.425781 C 180.234375 310.808594 180.234375 310.171875 180.25 309.507812 L 180.25 251.34375 C 180.457031 243.15625 182.609375 235.902344 186.949219 229.679688 C 191.703125 222.851562 193.585938 222.292969 200.378906 219.085938 C 205.734375 216.550781 210.574219 213.097656 214.714844 208.9375 C 223.894531 199.695312 229.574219 186.925781 229.574219 172.820312 C 229.574219 171.3125 229.507812 169.828125 229.386719 168.351562 C 229.253906 166.863281 229.0625 165.386719 228.808594 163.945312 L 228.796875 163.886719 L 212.210938 87.644531 L 209.382812 87.644531 L 226.09375 164.445312 C 226.328125 165.796875 226.503906 167.183594 226.628906 168.585938 C 226.75 169.972656 226.808594 171.386719 226.808594 172.820312 C 226.808594 186.152344 221.4375 198.230469 212.757812 206.96875 C 204.074219 215.710938 192.078125 221.113281 178.832031 221.113281 C 165.585938 221.113281 153.589844 215.710938 144.90625 206.96875 C 136.226562 198.230469 130.859375 186.152344 130.859375 172.820312 C 130.859375 171.386719 130.914062 169.972656 131.039062 168.585938 C 131.160156 167.175781 131.335938 165.796875 131.574219 164.445312 L 148.28125 87.644531 L 145.453125 87.644531 L 128.867188 163.882812 L 128.855469 163.9375 C 128.605469 165.386719 128.410156 166.863281 128.28125 168.351562 C 128.15625 169.820312 128.089844 171.3125 128.089844 172.820312 C 128.089844 186.925781 133.769531 199.695312 142.953125 208.9375 C 146.132812 212.144531 149.738281 214.921875 153.667969 217.1875 C 160.652344 221.203125 163.332031 221.476562 168.742188 228.757812 C 173.519531 235.1875 175.882812 242.753906 176.101562 251.34375 L 176.101562 311.425781 C 175.890625 319.164062 173.09375 323.617188 169.703125 325.644531 C 150.089844 326.148438 135.332031 328.339844 135.332031 330.960938 C 135.332031 333.960938 154.597656 336.390625 178.367188 336.390625 C 202.132812 336.390625 221.398438 333.960938 221.398438 330.960938 C 221.398438 328.324219 206.441406 326.121094 186.628906 325.636719 " fill-opacity="1" fill-rule="evenodd"/></g><path fill="#9f0c00" d="M 223.386719 163.996094 L 223.175781 163.011719 C 209.613281 163.40625 198.601562 167.617188 186.441406 172.269531 C 168.242188 179.21875 154.101562 183.429688 134.441406 180.667969 C 136.429688 190.910156 141.824219 199.925781 149.390625 206.46875 C 157.300781 213.296875 167.585938 217.425781 178.832031 217.425781 C 179.390625 217.425781 178.953125 217.4375 179.230469 217.429688 L 179.625 217.425781 C 182.941406 217.335938 186.261719 216.894531 189.496094 216.117188 C 192.652344 215.359375 195.710938 214.28125 198.582031 212.871094 C 204.054688 210.199219 208.90625 206.445312 212.875 201.886719 C 216.808594 197.363281 219.867188 192.046875 221.789062 186.199219 C 222.535156 183.910156 223.113281 181.554688 223.496094 179.160156 C 223.871094 176.8125 224.0625 174.386719 224.0625 171.890625 C 224.0625 170.546875 224.003906 169.210938 223.890625 167.90625 C 223.78125 166.582031 223.609375 165.273438 223.386719 163.996094 " fill-opacity="1" fill-rule="evenodd"/><path fill="#d9d9d9" d="M 223.316406 164.011719 L 223.113281 163.09375 C 216.367188 163.296875 210.246094 164.445312 204.300781 166.121094 C 198.339844 167.800781 192.546875 170.007812 186.46875 172.335938 L 186.140625 172.460938 C 185.214844 172.8125 184.28125 173.171875 183.34375 173.527344 C 178.9375 175.195312 174.761719 176.65625 170.679688 177.851562 C 166.59375 179.054688 162.597656 180.003906 158.546875 180.644531 C 154.761719 181.246094 150.933594 181.578125 146.953125 181.609375 C 143 181.632812 138.898438 181.363281 134.535156 180.761719 C 135.515625 185.78125 137.324219 190.496094 139.804688 194.773438 C 142.355469 199.175781 145.617188 203.105469 149.4375 206.410156 C 153.460938 209.886719 158.097656 212.65625 163.164062 214.542969 C 168.042969 216.359375 173.320312 217.351562 178.832031 217.351562 C 178.910156 217.351562 178.980469 217.355469 179.03125 217.355469 L 179.230469 217.355469 L 179.605469 217.351562 L 179.625 217.351562 C 181.285156 217.300781 182.941406 217.171875 184.59375 216.949219 C 186.234375 216.734375 187.867188 216.429688 189.476562 216.046875 C 191.0625 215.664062 192.625 215.203125 194.152344 214.65625 C 195.660156 214.121094 197.128906 213.503906 198.546875 212.804688 C 201.269531 211.476562 203.839844 209.875 206.21875 208.046875 C 208.621094 206.199219 210.832031 204.117188 212.816406 201.835938 C 214.792969 199.5625 216.546875 197.089844 218.050781 194.449219 C 219.53125 191.839844 220.761719 189.070312 221.714844 186.175781 C 222.09375 185.023438 222.425781 183.859375 222.710938 182.683594 C 222.996094 181.519531 223.234375 180.339844 223.421875 179.148438 C 223.609375 177.964844 223.753906 176.769531 223.847656 175.550781 C 223.941406 174.34375 223.992188 173.128906 223.992188 171.890625 C 223.992188 171.222656 223.976562 170.554688 223.949219 169.894531 C 223.917969 169.238281 223.875 168.570312 223.816406 167.914062 C 223.761719 167.25 223.691406 166.589844 223.605469 165.945312 C 223.519531 165.292969 223.425781 164.648438 223.316406 164.011719 Z M 223.246094 163.003906 L 223.460938 163.976562 L 223.460938 163.984375 C 223.570312 164.625 223.671875 165.273438 223.757812 165.929688 C 223.839844 166.582031 223.910156 167.238281 223.96875 167.894531 C 224.027344 168.550781 224.066406 169.21875 224.097656 169.894531 C 224.125 170.554688 224.140625 171.222656 224.140625 171.890625 C 224.140625 173.128906 224.089844 174.355469 223.996094 175.558594 C 223.902344 176.78125 223.757812 177.984375 223.570312 179.171875 C 223.378906 180.363281 223.136719 181.550781 222.855469 182.722656 C 222.570312 183.90625 222.234375 185.074219 221.859375 186.222656 C 220.902344 189.128906 219.664062 191.90625 218.179688 194.523438 C 216.671875 197.167969 214.910156 199.652344 212.925781 201.9375 C 210.9375 204.222656 208.71875 206.316406 206.308594 208.160156 C 203.921875 210 201.34375 211.609375 198.613281 212.941406 C 197.183594 213.644531 195.710938 214.257812 194.203125 214.800781 C 192.675781 215.347656 191.105469 215.804688 189.511719 216.1875 C 187.902344 216.578125 186.261719 216.882812 184.613281 217.101562 C 182.984375 217.320312 181.339844 217.445312 179.699219 217.5 L 179.625 217.503906 L 179.121094 217.503906 C 178.664062 217.550781 178.324219 217.539062 178.191406 217.503906 C 178.140625 217.503906 178.101562 217.5 178.078125 217.492188 C 172.824219 217.414062 167.785156 216.425781 163.113281 214.683594 C 158.03125 212.792969 153.378906 210.007812 149.339844 206.523438 C 145.511719 203.210938 142.234375 199.265625 139.675781 194.851562 C 137.167969 190.53125 135.351562 185.753906 134.367188 180.679688 L 134.347656 180.578125 L 134.453125 180.597656 C 138.847656 181.214844 142.976562 181.484375 146.953125 181.460938 C 150.921875 181.429688 154.746094 181.097656 158.527344 180.5 C 162.566406 179.859375 166.554688 178.914062 170.636719 177.71875 C 174.714844 176.515625 178.886719 175.054688 183.289062 173.382812 C 184.226562 173.027344 185.160156 172.675781 186.085938 172.316406 L 186.414062 172.195312 C 192.5 169.871094 198.292969 167.65625 204.265625 165.976562 C 210.238281 164.289062 216.382812 163.136719 223.167969 162.941406 L 223.234375 162.933594 Z M 179.117188 217.355469 L 179.121094 217.355469 " fill-opacity="1" fill-rule="nonzero"/><path fill="#9f0c00" d="M 178.289062 171.246094 C 172.804688 168.953125 166.976562 167.007812 160.269531 165.925781 C 152.75 164.703125 144.113281 164.554688 133.601562 166.167969 C 133.503906 166.976562 133.425781 167.800781 133.371094 168.628906 C 133.292969 169.691406 133.253906 170.78125 133.253906 171.890625 C 133.253906 172.851562 133.28125 173.777344 133.339844 174.675781 C 133.375 175.335938 133.429688 176.003906 133.5 176.671875 C 137.957031 177.371094 142.121094 177.707031 146.097656 177.722656 C 150.183594 177.742188 154.09375 177.414062 157.957031 176.8125 C 161.632812 176.226562 165.296875 175.367188 169.066406 174.277344 C 172.0625 173.40625 175.113281 172.394531 178.289062 171.246094 " fill-opacity="1" fill-rule="evenodd"/><g mask="url(#6e20007298)"><g transform="matrix(1, 0, 0, 1, 202, 185)"><g clip-path="url(#e3145856e2)"><g clip-path="url(#c36ec9cb37)"><g clip-path="url(#1d44581ac5)"><g clip-path="url(#2867512079)"><path fill="#ffffff" d="M 133.222656 14.210938 L 112.316406 181.421875 L 0.84375 167.484375 L 21.746094 0.273438 Z M 133.222656 14.210938 " fill-opacity="1" fill-rule="nonzero"/></g></g></g></g></g></g><g fill="#000000" fill-opacity="1"><g transform="translate(96.755367, 219.29362)"><g><path d="M 79.75 2.515625 C 64.21875 2.515625 51.078125 -1.0625 40.328125 -8.21875 C 29.585938 -15.382812 21.472656 -25.476562 15.984375 -38.5 C 10.503906 -51.53125 7.765625 -66.65625 7.765625 -83.875 C 7.765625 -101.394531 11.078125 -116.78125 17.703125 -130.03125 C 24.335938 -143.289062 33.441406 -153.535156 45.015625 -160.765625 C 56.597656 -168.003906 69.625 -171.625 84.09375 -171.625 C 107.863281 -171.625 126.03125 -164.117188 138.59375 -149.109375 C 151.164062 -134.109375 157.453125 -113.351562 157.453125 -86.84375 C 157.453125 -69.019531 154.0625 -53.363281 147.28125 -39.875 C 140.507812 -26.394531 131.21875 -15.957031 119.40625 -8.5625 C 107.601562 -1.175781 94.382812 2.515625 79.75 2.515625 Z M 82.734375 -159.75 C 67.953125 -159.75 56.296875 -153.3125 47.765625 -140.4375 C 39.234375 -127.5625 34.96875 -108.707031 34.96875 -83.875 C 34.96875 -61.019531 39.117188 -42.925781 47.421875 -29.59375 C 55.722656 -16.257812 67.335938 -9.59375 82.265625 -9.59375 C 96.890625 -9.59375 108.503906 -16.21875 117.109375 -29.46875 C 125.722656 -42.726562 130.03125 -61.773438 130.03125 -86.609375 C 130.03125 -109.617188 125.914062 -127.5625 117.6875 -140.4375 C 109.46875 -153.3125 97.816406 -159.75 82.734375 -159.75 Z M 82.734375 -159.75 "/></g></g></g><path stroke-linecap="butt" transform="matrix(1.060456, 0, 0, 1.058414, 67.690752, 76.095223)" fill="none" stroke-linejoin="miter" d="M 0.0006169 6.999798 L 210.600694 6.999798 " stroke="#ffffff" stroke-width="14" stroke-opacity="1" stroke-miterlimit="4"/><path stroke-linecap="butt" transform="matrix(-0.155954, 1.047177, -1.046868, -0.155909, 224.142412, 234.069287)" fill="none" stroke-linejoin="miter" d="M -0.000224562 4.501771 L 105.983966 4.500465 " stroke="#ffffff" stroke-width="9" stroke-opacity="1" stroke-miterlimit="4"/><g mask="url(#d3f59484c7)"><g transform="matrix(1, 0, 0, 1, 99, 19)"><g clip-path="url(#23b6b5a3f1)"><g clip-path="url(#d5df6aa059)"><g clip-path="url(#dd1f5a7838)"><path fill="#ffffff" d="M 0.761719 0.425781 L 159.523438 0.425781 L 159.523438 57.480469 L 0.761719 57.480469 Z M 0.761719 0.425781 " fill-opacity="1" fill-rule="nonzero"/></g></g></g></g></g></svg>